<svg width="225" height="225" viewBox="0 0 225 225" fill="none" xmlns="http://www.w3.org/2000/svg">
<path d="M131.063 20.5306H65.3385C53.1882 20.5306 43.3385 30.3803 43.3385 42.5306V182.469C43.3385 194.62 53.1882 204.469 65.3385 204.469H160C172.15 204.469 182 194.62 182 182.469V71.4675M131.063 20.5306V20.5306C132.575 20.5306 134.028 21.1198 135.113 22.1733L179.293 65.0661C181.023 66.7463 182 69.0555 182 71.4675V71.4675M131.063 20.5306V49.4675C131.063 61.6178 140.913 71.4675 153.063 71.4675H182" fill="none" stroke-width="15"/>
<circle cx="88.6157" cy="95.9927" r="16.0357" stroke="none"/>
<path d="M149.457 166.267H74.9382C63.6189 166.267 65.9771 162.494 67.392 159.192C68.1924 157.325 76.5103 141.427 81.5411 133.724C85.3143 127.946 89.559 123.536 98.9917 135.61C110.783 150.703 116.611 139.173 118.329 137.025C120.192 134.697 121.595 130.989 127.986 114.097L128.233 113.443C134.836 95.9927 141.489 112.178 141.911 113.443C142.382 114.858 152.758 145.515 157.003 156.834C160.399 165.889 153.702 166.267 149.457 166.267Z" stroke="none"/>
</svg>
