<svg width="225" height="225" viewBox="0 0 225 225" fill="none" xmlns="http://www.w3.org/2000/svg">
<path d="M69.5 86.5H43.8028C43.6054 86.5 43.4123 86.5584 43.2481 86.6679L12.8481 106.935C12.3823 107.245 12.2621 107.877 12.5815 108.337L81.7421 207.909C82.1216 208.455 82.9188 208.486 83.3389 207.97L110.838 174.198C110.944 174.068 111.081 173.967 111.237 173.904L167.364 151.055C167.454 151.019 167.538 150.969 167.614 150.908L209.819 116.95C210.378 116.5 210.295 115.625 209.661 115.288L155.5 86.5" fill="none" stroke-width="7"/>
<path d="M43.5 86.5L111 174M167.5 151L131 116" stroke-width="4"/>
<mask id="path-3-inside-1_7_2" fill="white">
<path fill-rule="evenodd" clip-rule="evenodd" d="M68 55.5C68 31.4756 87.9233 12 112.5 12C137.077 12 157 31.4756 157 55.5C158.93 75.7679 132.139 105.04 114.386 124.438C113.745 125.138 113.116 125.826 112.5 126.5C95 109.833 67 78.5 68 55.5ZM112.5 80C124.926 80 135 69.9264 135 57.5C135 45.0736 124.926 35 112.5 35C100.074 35 90 45.0736 90 57.5C90 69.9264 100.074 80 112.5 80Z"/>
</mask>
<path fill-rule="evenodd" clip-rule="evenodd" d="M68 55.5C68 31.4756 87.9233 12 112.5 12C137.077 12 157 31.4756 157 55.5C158.93 75.7679 132.139 105.04 114.386 124.438C113.745 125.138 113.116 125.826 112.5 126.5C95 109.833 67 78.5 68 55.5ZM112.5 80C124.926 80 135 69.9264 135 57.5C135 45.0736 124.926 35 112.5 35C100.074 35 90 45.0736 90 57.5C90 69.9264 100.074 80 112.5 80Z"/>
<path d="M68 55.5L68.9991 55.5434L69 55.5217V55.5H68ZM157 55.5H156V55.5475L156.005 55.5948L157 55.5ZM114.386 124.438L113.649 123.763L113.649 123.763L114.386 124.438ZM112.5 126.5L111.81 127.224L112.55 127.928L113.238 127.175L112.5 126.5ZM112.5 11C87.3926 11 67 30.902 67 55.5H69C69 32.0492 88.4541 13 112.5 13V11ZM158 55.5C158 30.902 137.607 11 112.5 11V13C136.546 13 156 32.0492 156 55.5H158ZM115.124 125.113C123.993 115.423 135.173 103.209 143.891 90.8725C148.251 84.7024 152.017 78.4732 154.572 72.4869C157.124 66.5089 158.5 60.7028 157.995 55.4052L156.005 55.5948C156.465 60.4312 155.216 65.8846 152.733 71.7017C150.253 77.5105 146.573 83.612 142.258 89.7182C133.625 101.934 122.533 114.055 113.649 123.763L115.124 125.113ZM113.238 127.175C113.854 126.501 114.483 125.814 115.124 125.113L113.649 123.763C113.008 124.463 112.378 125.151 111.762 125.825L113.238 127.175ZM67.0009 55.4566C66.4853 67.316 73.4188 81.1399 82.4965 93.9531C91.6097 106.816 103.034 118.866 111.81 127.224L113.19 125.776C104.466 117.468 93.1403 105.517 84.1285 92.7969C75.0812 80.0267 68.5147 66.684 68.9991 55.5434L67.0009 55.4566ZM134 57.5C134 69.3741 124.374 79 112.5 79V81C125.479 81 136 70.4787 136 57.5H134ZM112.5 36C124.374 36 134 45.6259 134 57.5H136C136 44.5213 125.479 34 112.5 34V36ZM91 57.5C91 45.6259 100.626 36 112.5 36V34C99.5213 34 89 44.5213 89 57.5H91ZM112.5 79C100.626 79 91 69.3741 91 57.5H89C89 70.4787 99.5213 81 112.5 81V79Z" mask="url(#path-3-inside-1_7_2)"/>
</svg>
